<svg version="1.2" xmlns="http://www.w3.org/2000/svg" viewBox="0 0 474 150" width="474" height="150">
	<title>Novo Projeto</title>
	<style>
		.s0 { fill: #fdfdfd } 
		.s1 { fill: #ffd12e } 
	</style>
	<path id="toneSt  r" class="s0" aria-label="toneSt  r"  d="m69.6 106h-12.5v-58.4h12.5zm9.6-35.4h-30.8v-11.1h30.8zm29.3 36.2q-7.1 0-12.7-3.1-5.6-3.1-8.8-8.6-3.2-5.4-3.2-12.5 0-7 3.2-12.5 3.2-5.4 8.8-8.5 5.6-3.2 12.7-3.2 7.1 0 12.6 3.2 5.7 3.1 8.8 8.5 3.2 5.5 3.2 12.5 0 7.1-3.2 12.5-3.1 5.5-8.8 8.6-5.5 3.1-12.6 3.1zm0-10.9q3.5 0 6.2-1.7 2.7-1.7 4.2-4.7 1.6-3.1 1.5-6.9 0.1-3.9-1.5-6.8-1.5-3.1-4.2-4.8-2.7-1.8-6.2-1.8-3.5 0-6.2 1.8-2.7 1.8-4.3 4.8-1.6 2.9-1.5 6.8-0.1 3.8 1.5 6.9 1.6 3 4.3 4.7 2.7 1.7 6.2 1.7zm34.1 10v-46.5h12l0.3 9.5-2.4 1q0.9-3.1 3.4-5.7 2.6-2.6 6.1-4.2 3.5-1.6 7.4-1.6 5.3 0 8.8 2.1 3.6 2.1 5.3 6.4 1.9 4.3 1.9 10.5v28.5h-12.5v-27.5q0-3.2-0.9-5.3-0.9-2.1-2.7-3.1-1.8-0.9-4.4-0.9-2.1 0-4 0.8-1.7 0.6-3.1 1.8-1.2 1.2-2 2.8-0.7 1.6-0.7 3.5v27.9h-6.2q-2 0-3.6 0-1.5 0-2.7 0zm76.9 0.9q-7.6 0-13.3-3.1-5.7-3-8.8-8.4-3.1-5.4-3.1-12.3 0-5.5 1.7-10 1.8-4.5 5-7.7 3.1-3.4 7.5-5.1 4.4-1.9 9.5-1.9 4.7 0 8.8 1.8 4 1.7 6.9 4.9 3 3.1 4.6 7.4 1.6 4.2 1.4 9.2l-0.1 3.8h-37.4l-2-7.6h29.1l-1.4 1.6v-2q-0.2-2.4-1.6-4.2-1.3-1.9-3.4-3-2.1-1.1-4.8-1.1-3.8 0-6.6 1.5-2.6 1.5-4 4.4-1.4 2.9-1.4 7 0 4.2 1.7 7.3 1.9 3.1 5.1 4.9 3.4 1.6 7.9 1.6 3.1 0 5.6-0.9 2.6-1 5.5-3.4l6 8.4q-2.6 2.3-5.7 3.8-3.1 1.5-6.3 2.3-3.3 0.8-6.4 0.8zm51.2 0q-5.7 0-10.5-1.4-4.6-1.4-8.3-4.1-3.6-2.7-6.6-6.6l8.3-9.4q4.3 5.9 8.6 8.1 4.3 2.2 9.3 2.2 2.7 0 4.8-0.8 2.2-0.8 3.5-2.1 1.2-1.5 1.2-3.4 0-1.4-0.6-2.5-0.6-1.3-1.8-2.2-1.1-0.9-2.7-1.6-1.6-0.8-3.5-1.3-2-0.7-4.3-1-4.9-1.2-8.6-2.7-3.7-1.7-6.1-4.1-2.5-2.5-3.7-5.5-1.2-3.1-1.2-7 0-4 1.8-7.3 1.7-3.4 4.8-5.9 3.2-2.5 7.2-3.8 4.2-1.3 8.8-1.3 5.6 0 9.8 1.2 4.2 1.3 7.3 3.7 3.2 2.4 5.3 5.8l-8.4 8.1q-1.8-2.4-4-4.1-2.1-1.7-4.7-2.5-2.4-0.9-5.1-0.9-2.9 0-5 0.8-2.1 0.7-3.3 2.2-1.2 1.4-1.2 3.4 0 1.6 0.8 2.8 0.8 1.2 2.3 2.2 1.5 0.9 3.6 1.6 2.1 0.7 4.7 1.2 4.8 1 8.7 2.6 3.9 1.6 6.6 3.8 2.8 2.2 4.3 5.3 1.5 3 1.5 6.8 0 6.3-3 10.7-3 4.4-8.3 6.7-5.3 2.3-12.3 2.3zm50.8-0.9h-12.5v-58.3h12.5zm9.6-35.4h-30.8v-11.2h30.8zm74.7 35.4h-12.5v-46.6h12l0.5 15-2.2-3.1q1.1-3.6 3.5-6.5 2.4-3 5.5-4.7 3.3-1.6 6.8-1.6 1.5 0 2.9 0.2 1.4 0.3 2.4 0.6l-3.4 13.8q-0.9-0.6-2.5-0.9-1.5-0.4-3.1-0.4-2.1 0-4 0.7-1.7 0.7-3 2.2-1.4 1.3-2.2 3.1-0.7 1.9-0.7 4.1z"/>
	<path id="Forma 1 copy" class="s1" d="m384.9 82.6c-13 0-23.5-10.5-23.5-23.4h23.5z"/>
	<path id="Forma 1 copy 2" class="s1" d="m361.4 59.2c0 12.9-10.4 23.4-23.4 23.4v-23.4h23.4z"/>
	<path id="Forma 1 copy 3" class="s1" d="m361.4 106.1c0-12.9 10.5-23.4 23.5-23.4v23.4h-23.5z"/>
	<path id="Forma 1 copy 4" class="s1" d="m338 82.7c13 0 23.4 10.5 23.4 23.4h-23.4z"/>
</svg>