<svg version="1.2" xmlns="http://www.w3.org/2000/svg" viewBox="0 0 500 500" width="500" height="500">
	<title>1308700_163567-OVSNKB-146-svg</title>
	<style>
		.s0 { fill: none;stroke: #ffffff;stroke-width: 1 } 
		.s1 { fill: none;stroke: #ffffff } 
		.s2 { fill: #ffffff } 
		.s3 { fill: none } 
	</style>
	<g id="BACKGROUND">
	</g>
	<g id="OBJECT">
		<g id="Layer">
			<g id="Layer">
				<path id="Layer" class="s0" d="m280.2 322.8c-41.3 15.9-87.6-4.6-103.5-45.9-15.9-41.3 4.7-87.6 46-103.5 41.2-15.9 87.5 4.7 103.4 46 15.9 41.3-4.6 87.5-45.9 103.4z"/>
				<path id="Layer" class="s1" d="m251.4 352.5c-57.7 0-104.4-46.6-104.4-104.3 0-57.7 46.7-104.4 104.4-104.4 57.7 0 104.4 46.7 104.4 104.4 0 57.7-46.7 104.3-104.4 104.3z"/>
				<path id="Layer" class="s0" d="m378.3 269.6c-11.8 70.2-78.1 117.3-148.3 105.5-70.2-11.8-117.4-78-105.6-148.2 11.8-70.2 78.1-117.4 148.3-105.6 70.2 11.8 117.4 78.1 105.6 148.3z"/>
				<path id="Layer" class="s0" d="m399.9 285.1c-20.5 82.1-103.4 132-185.5 111.6-82.1-20.4-132-103.3-111.6-185.5 20.4-82.1 103.3-132 185.5-111.6 82.1 20.5 132 103.4 111.6 185.5z"/>
				<path id="Layer" class="s0" d="m423.6 291c-23.7 95.2-119.9 153-215.1 129.3-95.2-23.7-152.9-119.8-129.2-215 23.7-95.2 119.8-153 215-129.3 95.2 23.7 153 119.8 129.3 215z"/>
			</g>
			<path id="Layer" fill-rule="evenodd" class="s2" d="m337.3 193.2c-3.7 1.2-9 0.8-13.7-0.8-3.9 6.8-11.2 18.3-19.2 16.5-1.6-0.3-3.3-1.1-4.9-2.1-2.7-1.7-5.1-4.3-6.5-7.2-1.4-3-1.7-6.1-0.8-9.1 1.2-3.8 3.8-7.1 6.6-8.4 2.3-1.1 4.5-1 6.6 0.3q0 0 0 0.1c2.7 1.7 4.1 4.8 3.8 8.3-0.2 3.1-1.8 5.8-4 7.1-1.4 0.9-4.2 1.8-7.9-0.9q-0.2-0.1-0.3-0.3c-0.4-0.6-0.6-1.4-0.5-2.2 0.2-1.6 1.5-3 2.7-4 0.9-0.8 2-0.7 2.6 0.2 0.6 0.8 0.4 2.1-0.4 2.9q-0.4 0.3-0.7 0.6c1.2 0.6 2.2 0.6 3 0.1 1-0.5 1.7-1.9 1.8-3.4 0.2-2-0.6-3.8-2.2-4.8q0 0 0 0c-1.1-0.7-2.2-0.8-3.3-0.3-1.8 0.9-3.5 3.2-4.3 5.6q-0.9 2.9 0.6 6c1.7 3.5 5.6 6.7 9.2 7.5 5.3 1.2 11.3-8.1 14.7-13.8-2.1-1-4-2.2-5.4-3.5-6-5.8-7.7-16.5-7-22.3 1-8.8 5.2-16.8 11.8-22.4 6.4-5.5 14.4-8 21.2-6.7 2 0.3 3.1 0.6 4 0.9 2.7-8 6.2-15.8 13.2-19.1q3.9-1.9 6.1-0.6 0 0.1 0.1 0.1c0.8 0.5 1.7 1.7 1.7 4.1 0 3.5-1.1 7.4-3.2 11.5-3.3 6.4-7.8 10.1-11.7 9.7-2-0.2-3.2-0.3-4.1-0.5q-0.2 0.6-0.4 1.3c-1 3.2-2 6.3-3.1 9q-0.9 2.2-1.8 4.4c2.7 1.6 4.9 4.4 6.2 8 1.8 5.3 1.5 11.5-0.9 17-2 4.5-4.8 9.7-9.6 11.2zm-15-5.7q1.3-2.3 2.6-4.7c-1.4-1-2.7-2.5-3.9-4.3-3.2-5.1-2.9-11.4 0.6-16.6 3.8-5.6 10.3-8 16.6-6.3q0.9-2.2 1.8-4.4c1.1-2.5 2-5.5 3-8.6q0.2-0.8 0.5-1.5c-0.7-0.2-1.8-0.5-3.6-0.8-5.9-1.1-12.7 1-18.3 5.8-5.7 4.8-9.3 11.7-10.2 19.3-0.5 5 1.2 14.3 6 18.9 1.3 1.2 3 2.3 4.9 3.2zm25.9-49.2c0.7 0.1 1.8 0.2 3.4 0.4 2.3 0.2 5.5-2.8 8-7.4 1.7-3.4 2.6-6.5 2.6-9.3 0-0.6-0.1-0.9-0.2-0.9q0 0 0 0c-0.2-0.2-1.1-0.2-2.9 0.7-5.5 2.6-8.4 9.2-10.9 16.5zm-11.7 21.2c-5.6-1.3-9.9 1.6-12 4.7-2.5 3.6-2.6 8.1-0.4 11.7 0.9 1.4 1.8 2.5 2.8 3.2q5.2-9.7 9.6-19.6zm7.1 21c1.9-4.4 2.2-9.4 0.7-13.6-1-2.7-2.5-4.8-4.4-6q-4.5 10-9.8 19.9c1.3 0.2 2.4 0 3.1-0.4q1.4-0.8 1-2.6c-0.3-1 0.3-2.2 1.3-2.6 1-0.4 2 0.1 2.3 1.2 0.7 3-0.5 6-3.1 7.6-1.8 1.1-4.2 1.4-6.6 0.6q-1.2 2-2.3 4.1c3.8 1.1 8 1.4 10.8 0.6 3.2-1 5.5-5.5 7-8.8z"/>
			<path id="Layer" fill-rule="evenodd" class="s2" d="m140.7 190.1c2.3 3.2 3.6 8.2 3.8 13.2 7.6 1.5 20.9 4.5 21.9 12.7 0.1 1.7 0 3.5-0.4 5.3-0.8 3.2-2.5 6.3-4.7 8.5-2.4 2.4-5.3 3.7-8.4 3.8-3.9 0.1-7.9-1.2-10.1-3.5-1.7-1.7-2.4-3.9-1.8-6.3q0 0 0-0.1c0.8-3 3.2-5.4 6.7-6.3 2.9-0.8 6-0.2 8 1.5 1.2 1 3.1 3.4 1.7 7.7q-0.1 0.3-0.2 0.4c-0.4 0.7-1 1.1-1.8 1.3-1.6 0.3-3.4-0.5-4.8-1.3-1-0.5-1.3-1.7-0.7-2.5 0.7-0.9 2-1.1 2.9-0.6q0.5 0.3 0.8 0.5c0.2-1.3-0.1-2.3-0.8-2.9-0.9-0.8-2.4-1-3.9-0.6-1.9 0.5-3.4 1.9-3.8 3.6q0 0 0 0.1-0.4 1.8 0.9 3.2c1.3 1.4 4.1 2.3 6.7 2.2q3-0.1 5.4-2.6c2.8-2.7 4.5-7.4 4.1-11.1-0.7-5.4-11.4-8-17.9-9.3-0.2 2.3-0.7 4.4-1.6 6.2-3.4 7.5-13 12.7-18.7 14-8.6 1.9-17.5 0.6-25-3.8-7.3-4.3-12.3-11-13.3-17.9-0.3-1.9-0.4-3.2-0.5-4-8.4 0-16.9-0.7-22.3-6.2q-3.2-3.1-2.6-5.6 0-0.1 0-0.1c0.3-0.9 1.1-2.2 3.3-3 3.4-1.2 7.4-1.4 11.9-0.8 7.2 1.1 12.2 4.1 13.1 8 0.5 1.8 0.7 3.1 0.8 4q0.7-0.1 1.4-0.1c3.4-0.1 6.6-0.2 9.5 0q2.4 0.1 4.8 0.3c0.6-3.2 2.5-6.1 5.5-8.5 4.4-3.5 10.4-5.3 16.4-4.8 4.8 0.4 10.7 1.4 13.7 5.4zm-0.5 16.1q-2.6-0.5-5.2-0.9c-0.6 1.6-1.5 3.3-2.9 5.1-3.7 4.6-9.8 6.5-15.8 4.8-6.6-1.7-11-7-11.5-13.6q-2.3-0.1-4.7-0.3c-2.7-0.1-5.8 0-9.1 0.1q-0.8 0-1.6 0c0.1 0.7 0.1 1.8 0.4 3.7 0.9 5.8 5.2 11.6 11.5 15.3 6.5 3.8 14.2 4.9 21.6 3.3 4.9-1.1 13.1-5.8 15.9-11.9 0.8-1.6 1.2-3.5 1.4-5.6zm-55-8.3c-0.1-0.8-0.3-1.8-0.7-3.4-0.6-2.3-4.4-4.3-9.6-5.1-3.8-0.5-7-0.3-9.7 0.6-0.5 0.2-0.7 0.4-0.8 0.5q0 0 0 0c0 0.2 0.2 1.1 1.6 2.5 4.3 4.3 11.6 4.9 19.2 4.9zm23.9 4.1c0.6 5.7 4.8 8.8 8.4 9.8 4.2 1.1 8.5-0.2 11.1-3.5 1.1-1.3 1.8-2.6 2.2-3.7q-10.9-1.7-21.7-2.6zm17.5-13.6c-4.7-0.4-9.6 1-13.1 3.8-2.2 1.7-3.6 3.9-4.2 6.1q10.9 1 22 2.7c-0.2-1.3-0.7-2.3-1.4-2.8q-1.2-1.1-2.7-0.1c-1 0.6-2.3 0.4-3-0.4-0.7-0.8-0.5-1.9 0.4-2.5 2.7-1.7 5.9-1.6 8.2 0.4 1.7 1.4 2.7 3.5 2.7 6.1q2.4 0.4 4.7 0.8c-0.2-4-1.2-8-3-10.4-2-2.7-7-3.5-10.6-3.7z"/>
			<path id="Layer" class="s2" d="m113.5 304.8c2.2 6.4 6.5 10.6 9.9 11.6 6.4 1.8 9.5-4.7 7.5-10.1-2-5.7-7.7-12.5-13.3-10.3q-0.5 0.1-0.9 0.4v-0.1l-32.4 19.3c-1.4-3.4-5-7.4-6.6-10-3.9-6.2-6.7-12.6-10.2-18.9l25.8-15.4c-0.3 1.2-0.2 2.6 0.5 4.3 2.2 6.4 6.5 10.6 9.9 11.6 6.4 1.9 9.4-4.6 7.5-10.1-2-5.7-7.7-12.5-13.3-10.3q-0.5 0.2-0.9 0.4l-30.6 18.1c-2.8 0.4-6.4 1.8-8.4 3.2 1.8 4.7 4.5 9.3 7.3 13.7 1.1 1.8 12.3 19.9 12.3 19.9 3.2-1.5 7.2-4.2 7.2-4.2q0-0.3-0.1-0.6l28.3-16.8c-0.2 1.2-0.1 2.6 0.5 4.3z"/>
			<path id="Layer" class="s2" d="m230.8 113.3l-1.9 0.4 16.7 45.4c-1.4-0.9-3.2-1.4-5.4-1.4-8.3-0.2-14.3 3.5-16.1 7.4-3.3 7.3 4.3 14.3 11.4 14.4 7.4 0 16.8-4.1 15-12.4q-0.1-0.7-0.3-1.3z"/>
			<path id="Layer" class="s2" d="m182.7 61.1c-4.9-3.2-12-1.8-16.3 0.4-4.7 2.3-8.5 6.1-13.7 7.5-4.2 1.2-8.8-0.6-13.4-3.3l-2 1.3 41.4 55.3c-1.9-0.5-4-0.5-6.3 0.4-9 3.1-14 9.9-14.3 15.3-0.6 10.3 10.4 15.8 18 13.1 8-2.9 16.4-11.6 11.1-21q-0.4-0.8-0.9-1.5l-23.6-31.6c1.6 0 3.3-1.4 4.5-2.1 2.4-1.5 4.6-3.4 6.3-5.7 1.7-2.2 2.7-4.4 3.9-6.9 2.2-4.4 5.3-6.4 10-6 1.5 0.1 2.2 0 3.5 1.1 1.3 1.1 2.5 2.4 2.3 3.6 1-3.3-3.7-6.3-6.1-6.7-4.1-0.7-7.8 0.6-10.7 2.7-1.9 1.3-4.6 4-6.1 5.6-1.3 1.4-2.7 3.3-4.4 4.5-1.9 1.2-2.9 2.3-5.4 2.3-1.1-0.1-2.8-0.3-4.2-0.9l-4.5-6.1c1.6 1.2 3.6 1.3 4.9 1.2 2.4-0.2 3.8-2.4 5.4-3.9 2.8-2.8 5.1-5.9 7.6-9.1 2.3-3 8.2-8.3 13.1-5.4 2.5 1.5 2.4 4.1 3.3 6.2 1.7-3.1 0.2-8-3.4-10.3z"/>
			<path id="Layer" fill-rule="evenodd" class="s2" d="m287.9 95.5c-3.3-1.2-5-6.2-1.5-9.5 1.8-1.7 5.5-2.6 9.3-1.1 1 0.3 1.7 0.9 2.2 1.6l2.8-19.2c-1.9 0.2-5.3-0.2-10.1-0.9-3.9-0.5-7.9-1-10.1-0.9l-3.6 24.9h-0.1q0 0.3-0.1 0.7c-1.3 4.7-6.8 5.3-10.2 4-3.3-1.2-5-6.2-1.6-9.5 1.9-1.8 5.6-2.7 9.4-1.2 1 0.4 1.7 0.9 2.1 1.7l3.9-26.2q-0.1-0.1-0.2-0.2c0 0 0.4-3.9 1-6.7 0 0 12.9 1 14.1 1.1 3.2 0.2 6.4 0.5 9.3 1.5-0.2 1.9-1 5-2 6.9l-4.2 28.3q-0.1 0.4-0.2 0.7c-1.3 4.7-6.8 5.3-10.2 4zm13.2-30.5l0.3-2.4c-4.3-0.6-8.4-1.7-12.8-2-1.8-0.1-5.2 0.5-7.3-0.2l-0.4 2.8c2.3-0.1 6.1 0.4 10 1 3.9 0.5 8.7 1.1 10.2 0.8z"/>
			<path id="Layer" class="s2" d="m440.6 229.3c2.9-5.4 1.1-13.3-1.2-18.1-2.6-5.2-6.5-9.6-8.2-15.4-1.3-4.6 0.2-9.6 2.6-14.7l-1.4-2.2-51.3 43.6c0.4-2.1 0.3-4.4-0.7-7-3.5-10-10.4-15.8-15.6-16.3-10-1-14.8 10.9-11.7 19.4 3.3 8.9 12.2 18.5 21 13q0.7-0.4 1.3-0.9h0.1l29.3-24.9c0 1.8 1.5 3.7 2.3 5.1 1.5 2.7 3.5 5.2 5.8 7.1 2.2 2 4.4 3.1 6.9 4.6 4.4 2.6 6.4 6.1 6.4 11.3 0 1.6 0 2.4-0.9 3.8-1 1.4-2.2 2.6-3.3 2.4 3.2 1.2 5.8-3.8 6.1-6.5 0.4-4.5-1-8.6-3.2-11.9-1.4-2.1-4.1-5.2-5.8-7-1.4-1.5-3.4-3.1-4.6-5-1.3-2.1-2.4-3.3-2.5-6.1 0-1.1 0.1-3 0.6-4.5l5.7-4.8c-1.1 1.8-1.1 3.9-0.9 5.4 0.3 2.6 2.5 4.3 4 6.1 3 3.2 6.1 5.9 9.3 8.7 3 2.7 8.5 9.4 6 14.7-1.3 2.7-3.9 2.4-5.9 3.4 3.2 2 7.8 0.5 9.8-3.3z"/>
			<path id="Layer" class="s2" d="m353.2 301.9c1.3-5.4 0.1-10.2-1.9-12.4-3.6-4-8.6-0.8-9.5 3.8-1.1 4.9-0.1 12.1 4.8 13q0.4 0 0.8 0.1l30.8 0.5c-0.5 3 0.3 7.3 0.3 9.8 0 5.9-0.7 11.7-1 17.5l-24.6-0.4c0.7-0.7 1.2-1.7 1.5-3.1 1.2-5.4 0-10.3-1.9-12.4-3.6-4-8.6-0.8-9.6 3.8-1 4.9 0 12 4.9 12.9q0.4 0.1 0.8 0.1v0.1l29 0.4c2.1 1 5.3 1.6 7.3 1.4 0.7-4 0.8-8.4 0.8-12.6 0-1.7 0-19.2 0-19.2-2.9-0.3-6.9-0.1-6.9-0.1q-0.1 0.2-0.2 0.4l-26.9-0.4c0.7-0.8 1.3-1.8 1.5-3.2z"/>
			<path id="Layer" fill-rule="evenodd" class="s2" d="m398.2 297.3c0.8-2.5 1.7-5.1 2.5-7.8-2.3-0.2-4.5-0.2-6.6 0l-0.1-1.9c2.3-0.2 4.8-0.1 7.3 0.1 0.9-2.9 1.7-5.9 2.4-8.8-3.3-0.4-6.4-0.6-9.2-0.3l-0.1-1.9c3-0.3 6.3-0.1 9.7 0.3 0.5-2.5 0.9-4.9 1.1-7.2l1.6 0.1c-0.2 2.3-0.6 4.8-1.1 7.4 2.6 0.3 5.2 0.9 7.7 1.4 0.6-2.7 1-5.2 1.2-7.7l1.6 0.1c-0.2 2.5-0.6 5.2-1.2 8q2.2 0.5 4.2 0.9l0.9 0.3-0.4 1.8-0.9-0.2q-2.1-0.5-4.2-1c-0.7 2.9-1.5 5.8-2.4 8.6 2.3 0.5 4.5 1 6.6 1.5l1 0.2-0.4 1.9-1-0.3c-2.1-0.5-4.4-1-6.7-1.5-0.9 2.7-1.7 5.3-2.6 7.8l-0.3 1.1-1.6-0.6 0.4-1.1c0.8-2.4 1.6-4.9 2.5-7.5-2.6-0.6-5.2-1-7.7-1.3-0.9 2.8-1.8 5.6-2.7 8.2l-0.3 1.1-1.6-0.6zm4.8-9.4c2.5 0.3 5.1 0.7 7.7 1.3 0.8-2.9 1.6-5.8 2.3-8.6-2.5-0.6-5.1-1.1-7.7-1.5-0.6 2.9-1.4 5.9-2.3 8.8z"/>
			<path id="Layer" fill-rule="evenodd" class="s2" d="m121.9 164c0.8-2.4 1.7-5 2.5-7.7-2.3-0.2-4.5-0.2-6.6 0v-1.9c2.2-0.2 4.7-0.1 7.2 0.1 0.9-2.9 1.7-5.9 2.4-8.8-3.2-0.4-6.4-0.6-9.2-0.4l-0.1-1.8c3-0.3 6.3-0.1 9.7 0.3 0.5-2.5 0.9-4.9 1.1-7.2l1.6 0.1c-0.1 2.3-0.5 4.8-1.1 7.3 2.6 0.4 5.2 0.9 7.7 1.5 0.6-2.7 1-5.3 1.2-7.7l1.6 0.1c-0.1 2.5-0.6 5.2-1.2 8q2.2 0.5 4.2 0.9l1 0.3-0.4 1.8-1-0.2q-2-0.5-4.2-1c-0.7 2.9-1.5 5.7-2.3 8.6 2.2 0.5 4.4 1 6.5 1.5l1 0.2-0.4 1.9-1-0.3c-2.1-0.5-4.4-1-6.7-1.5-0.8 2.7-1.7 5.3-2.5 7.8l-0.4 1.1-1.5-0.6 0.3-1.1c0.8-2.4 1.7-4.9 2.5-7.5-2.6-0.6-5.2-1-7.7-1.3-0.9 2.8-1.8 5.6-2.6 8.2l-0.4 1.1-1.5-0.6zm4.7-9.4c2.6 0.3 5.1 0.7 7.7 1.2 0.8-2.8 1.7-5.7 2.3-8.5-2.5-0.6-5.1-1.1-7.6-1.5-0.7 2.9-1.5 5.9-2.4 8.8z"/>
			<path id="Layer" fill-rule="evenodd" class="s2" d="m316.8 249.9c0.8-2.3 4.3-3.5 6.6-1 1.2 1.2 1.9 3.8 0.8 6.5-0.2 0.7-0.6 1.2-1.1 1.5l13.3 2c-0.1-1.3 0.2-3.7 0.7-7.1 0.3-2.7 0.7-5.5 0.6-6.9l-17.3-2.7q-0.2 0-0.5-0.1c-3.3-0.9-3.6-4.7-2.8-7.1 0.9-2.3 4.4-3.5 6.7-1.1 1.2 1.3 1.8 3.9 0.8 6.6-0.3 0.7-0.7 1.2-1.2 1.5l18.2 2.7q0.1-0.1 0.2-0.2c0 0 2.7 0.3 4.6 0.7 0 0-0.7 9-0.7 9.9-0.2 2.2-0.4 4.4-1.1 6.4-1.4-0.1-3.5-0.7-4.9-1.4l-19.6-2.9v-0.1q-0.3 0-0.5-0.1c-3.3-0.9-3.7-4.7-2.8-7.1zm21.3 9.2l1.6 0.3c0.4-3 1.2-5.9 1.4-8.9 0.1-1.3-0.3-3.6 0.2-5.1l-2-0.3c0.1 1.6-0.3 4.2-0.7 7-0.3 2.7-0.8 6-0.5 7z"/>
			<path id="Layer" class="s2" d="m301.3 365.6c2.1 1.9 5.7 1.9 8.1 1.4 2.6-0.6 4.9-1.8 7.7-1.9 2.1-0.1 4.2 1 6.2 2.6l1.1-0.3-13.8-27.3c0.9 0.5 1.9 0.6 3.1 0.5 4.8-0.5 8.1-2.9 8.9-5.2 1.5-4.3-3.2-7.6-7.3-7.2-4.3 0.5-9.5 3.4-8 7.9q0.1 0.3 0.3 0.7l7.9 15.5c-0.8-0.1-1.8 0.3-2.5 0.5-1.4 0.4-2.7 1-3.8 1.8-1.1 0.8-1.8 1.6-2.8 2.6-1.6 1.6-3.3 2.2-5.6 1.6-0.7-0.2-1.1-0.2-1.6-0.8-0.5-0.6-0.9-1.2-0.7-1.7-0.8 1.3 1.1 3 2.2 3.4 2 0.6 4 0.4 5.6-0.2 1.1-0.4 2.8-1.3 3.7-1.8 0.8-0.5 1.7-1.2 2.7-1.5 1.1-0.3 1.7-0.7 2.9-0.4 0.5 0.1 1.4 0.3 2 0.7l1.5 3c-0.7-0.6-1.6-0.9-2.3-1-1.2-0.1-2.2 0.7-3.1 1.2-1.7 0.9-3.2 2-4.8 3.1-1.5 1.1-5 2.8-7.1 1.1-1.1-0.8-0.7-1.9-0.9-2.9-1.2 1.2-1 3.3 0.4 4.6z"/>
			<path id="Layer" class="s2" d="m114.5 392.2c0.1 5.8 5.3 11.4 9.4 14.3 4.5 3.1 9.8 4.9 13.8 8.9 3.3 3.2 4.4 8 4.8 13.2l2.1 1.2 21.9-59.7c0.6 2 1.8 3.8 3.8 5.5 7.6 6.6 15.9 8.1 20.5 6.1 8.7-3.8 7-15.8 0.5-21.3-6.8-5.8-18.6-9.6-23.3-1q-0.3 0.7-0.6 1.4h-0.1l-12.5 34.1c-0.9-1.4-2.9-2.4-4.2-3.1-2.6-1.5-5.3-2.6-8.1-3.2-2.8-0.5-5.1-0.5-7.8-0.6-4.8-0.1-8.1-1.9-10.5-6.3-0.8-1.3-1.2-1.9-1-3.4 0.1-1.7 0.6-3.3 1.6-3.6-3.2 0.5-3.1 5.9-2 8.2 1.7 3.9 4.8 6.6 8.1 8.3 2.2 1.1 5.8 2.3 8.1 3 1.8 0.6 4.1 1 6 2 2.1 1.1 3.5 1.6 4.9 3.8 0.5 0.9 1.3 2.6 1.6 4l-2.4 6.6c0-1.9-1-3.7-1.8-4.8-1.5-2-4-2.5-6.1-3.2-4-1.3-7.8-2-11.7-2.9-3.8-0.8-11.3-3.7-11.7-9.2-0.2-2.9 2-3.8 3.2-5.6-3.5-0.1-6.6 3.2-6.5 7.3z"/>
			<path id="Layer" class="s2" d="m296.2 398.6c6.7-0.3 12-3.4 13.9-6.3 3.5-5.7-1.9-10.4-7.7-10-6 0.4-14.1 4-13.6 10q0.1 0.5 0.2 0.9h-0.1l9.7 36.5c-3.6 0.3-8.5 2.7-11.4 3.6-7 2-14 3-21 4.6l-7.7-29c1.1 0.6 2.5 0.8 4.2 0.7 6.8-0.4 12.1-3.4 13.9-6.3 3.5-5.7-1.9-10.4-7.6-10-6.1 0.4-14.2 3.9-13.6 10q0 0.4 0.1 0.9l9.1 34.4c-0.5 2.7-0.1 6.6 0.8 8.9 4.9-0.4 10.2-1.7 15.1-3.2 2-0.6 22.6-6.4 22.6-6.4-0.6-3.5-2.1-8.1-2.1-8.1q-0.3-0.1-0.6-0.1l-8.5-31.8c1.1 0.6 2.5 0.9 4.3 0.7z"/>
			<path id="Layer" fill-rule="evenodd" class="s2" d="m189.5 271.3c1.6 3.1-0.4 7.9-5.2 8.1-2.6 0.1-5.9-1.8-7.8-5.4-0.5-1-0.6-1.8-0.4-2.7l-15 12.4c1.5 1.1 3.7 3.7 6.9 7.5 2.6 2.9 5.2 6 6.9 7.3l19.3-16q0.3-0.2 0.7-0.4c4.1-2.6 8.5 0.6 10.2 3.9 1.6 3-0.4 7.9-5.2 8.1-2.5 0-5.9-1.8-7.8-5.5-0.5-0.9-0.6-1.8-0.4-2.6l-20.4 16.9q0 0.1 0 0.3c0 0-2.9 2.6-5.2 4.3 0 0-8.9-9.4-9.8-10.3-2.2-2.2-4.4-4.7-5.8-7.3 1.4-1.4 4-3 6.1-3.8l22-18.2q0.3-0.2 0.7-0.5c4.1-2.6 8.5 0.6 10.2 3.9zm-30.2 13.9l-1.9 1.5c2.8 3.3 5.2 6.9 8.2 10.1 1.3 1.3 4.2 3.1 5.3 5l2.2-1.8c-1.8-1.5-4.3-4.4-6.9-7.4-2.5-3-5.6-6.7-6.9-7.4z"/>
			<path id="Layer" fill-rule="evenodd" class="s2" d="m233.1 345.2c3.4 1 5.4 5.9 2.2 9.4-1.7 1.9-5.4 3-9.3 1.8-1.1-0.3-1.8-0.8-2.3-1.5l-1.5 19.3c1.8-0.3 5.2-0.1 10.1 0.2 4 0.3 8 0.6 10.1 0.3l2.1-25q0-0.4 0.1-0.8c1-4.7 6.4-5.7 9.9-4.6 3.4 1 5.4 5.8 2.2 9.4-1.7 1.9-5.4 3-9.3 1.8-1.1-0.3-1.8-0.9-2.3-1.6l-2.1 26.4q0.1 0.1 0.3 0.2c0 0-0.2 3.9-0.6 6.7 0 0-13-0.1-14.2-0.1-3.2 0-6.4-0.1-9.3-0.9 0-2 0.6-5.1 1.5-7.1l2.4-28.5q0-0.4 0.1-0.7c1-4.8 6.4-5.7 9.9-4.7zm-11.1 31.4l-0.2 2.4c4.3 0.3 8.5 1.1 12.9 1.1 1.8 0 5.1-0.8 7.3-0.2l0.2-2.9c-2.3 0.2-6.1 0-10.1-0.3-3.9-0.2-8.7-0.5-10.1-0.1z"/>
		</g>
		<path id="Layer" class="s3" d="m45 228.2h410.1v59.6h-410.1z"/>
	</g>
</svg>